<mxfile host="app.diagrams.net" modified="2024-05-04T18:10:18.851Z" agent="Mozilla/5.0 (X11; Linux x86_64; rv:125.0) Gecko/20100101 Firefox/125.0" etag="rEimZHHW9L9E3JNOY39t" version="24.3.1" type="device">
  <diagram name="Page-1" id="b5b7bab2-c9e2-2cf4-8b2a-24fd1a2a6d21">
    <mxGraphModel dx="1658" dy="672" grid="1" gridSize="10" guides="1" tooltips="1" connect="1" arrows="1" fold="1" page="1" pageScale="1" pageWidth="827" pageHeight="1169" background="none" math="0" shadow="0">
      <root>
        <mxCell id="0" />
        <mxCell id="1" parent="0" />
        <mxCell id="6e0c8c40b5770093-72" value="" style="shape=folder;fontStyle=1;spacingTop=10;tabWidth=194;tabHeight=22;tabPosition=left;html=1;rounded=0;shadow=0;comic=0;labelBackgroundColor=none;strokeWidth=1;fillColor=none;fontFamily=Verdana;fontSize=10;align=center;movable=0;resizable=0;rotatable=0;deletable=0;editable=0;locked=1;connectable=0;" parent="1" vertex="1">
          <mxGeometry x="330" y="115" width="1001" height="645" as="geometry" />
        </mxCell>
        <mxCell id="6e0c8c40b5770093-73" value="TETRIS" style="text;html=1;align=center;verticalAlign=top;spacingTop=-4;fontSize=20;fontFamily=Verdana;fillColor=none;fontStyle=1" parent="1" vertex="1">
          <mxGeometry x="359" y="115" width="130" height="20" as="geometry" />
        </mxCell>
        <mxCell id="7nx60gA9-MDWkzp9lWug-8" value="&lt;div&gt;Piece&lt;/div&gt;&lt;div&gt;&lt;br&gt;&lt;/div&gt;" style="swimlane;fontStyle=1;align=center;verticalAlign=top;childLayout=stackLayout;horizontal=1;startSize=26;horizontalStack=0;resizeParent=1;resizeParentMax=0;resizeLast=0;collapsible=1;marginBottom=0;whiteSpace=wrap;html=1;" parent="1" vertex="1">
          <mxGeometry x="753.5" y="440" width="160" height="188" as="geometry" />
        </mxCell>
        <mxCell id="7nx60gA9-MDWkzp9lWug-9" value="&lt;div&gt;- color: int&lt;/div&gt;&lt;div&gt;- form: int[ ][ ]&lt;/div&gt;&lt;div&gt;- x: int&lt;/div&gt;&lt;div&gt;- y : int&lt;/div&gt;&lt;div&gt;- rotation: int&lt;br&gt;&lt;/div&gt;" style="text;strokeColor=none;fillColor=none;align=left;verticalAlign=top;spacingLeft=4;spacingRight=4;overflow=hidden;rotatable=0;points=[[0,0.5],[1,0.5]];portConstraint=eastwest;whiteSpace=wrap;html=1;" parent="7nx60gA9-MDWkzp9lWug-8" vertex="1">
          <mxGeometry y="26" width="160" height="74" as="geometry" />
        </mxCell>
        <mxCell id="7nx60gA9-MDWkzp9lWug-10" value="" style="line;strokeWidth=1;fillColor=none;align=left;verticalAlign=middle;spacingTop=-1;spacingLeft=3;spacingRight=3;rotatable=0;labelPosition=right;points=[];portConstraint=eastwest;strokeColor=inherit;" parent="7nx60gA9-MDWkzp9lWug-8" vertex="1">
          <mxGeometry y="100" width="160" height="18" as="geometry" />
        </mxCell>
        <mxCell id="7nx60gA9-MDWkzp9lWug-11" value="&lt;div&gt;+ Spawn(): void&lt;/div&gt;&lt;div&gt;+ Rotate(): void&lt;/div&gt;&lt;div&gt;+ DropDown(): void&lt;/div&gt;" style="text;strokeColor=none;fillColor=none;align=left;verticalAlign=top;spacingLeft=4;spacingRight=4;overflow=hidden;rotatable=0;points=[[0,0.5],[1,0.5]];portConstraint=eastwest;whiteSpace=wrap;html=1;" parent="7nx60gA9-MDWkzp9lWug-8" vertex="1">
          <mxGeometry y="118" width="160" height="70" as="geometry" />
        </mxCell>
        <mxCell id="7nx60gA9-MDWkzp9lWug-49" style="rounded=0;orthogonalLoop=1;jettySize=auto;html=1;exitX=0.5;exitY=0;exitDx=0;exitDy=0;endArrow=none;endFill=0;" parent="1" source="7nx60gA9-MDWkzp9lWug-12" edge="1">
          <mxGeometry relative="1" as="geometry">
            <mxPoint x="633.2931034482758" y="670" as="targetPoint" />
          </mxGeometry>
        </mxCell>
        <mxCell id="7nx60gA9-MDWkzp9lWug-12" value="&lt;div&gt;I Piece&lt;/div&gt;&lt;div&gt;&lt;br&gt;&lt;/div&gt;" style="swimlane;fontStyle=1;align=center;verticalAlign=top;childLayout=stackLayout;horizontal=1;startSize=26;horizontalStack=0;resizeParent=1;resizeParentMax=0;resizeLast=0;collapsible=1;marginBottom=0;whiteSpace=wrap;html=1;" parent="1" vertex="1">
          <mxGeometry x="553.5" y="690" width="160" height="60" as="geometry" />
        </mxCell>
        <mxCell id="7nx60gA9-MDWkzp9lWug-14" value="" style="line;strokeWidth=1;fillColor=none;align=left;verticalAlign=middle;spacingTop=-1;spacingLeft=3;spacingRight=3;rotatable=0;labelPosition=right;points=[];portConstraint=eastwest;strokeColor=inherit;" parent="7nx60gA9-MDWkzp9lWug-12" vertex="1">
          <mxGeometry y="26" width="160" height="8" as="geometry" />
        </mxCell>
        <mxCell id="7nx60gA9-MDWkzp9lWug-15" value="+ Rotate(): void" style="text;strokeColor=none;fillColor=none;align=left;verticalAlign=top;spacingLeft=4;spacingRight=4;overflow=hidden;rotatable=0;points=[[0,0.5],[1,0.5]];portConstraint=eastwest;whiteSpace=wrap;html=1;" parent="7nx60gA9-MDWkzp9lWug-12" vertex="1">
          <mxGeometry y="34" width="160" height="26" as="geometry" />
        </mxCell>
        <mxCell id="7nx60gA9-MDWkzp9lWug-22" value="&lt;div&gt;J Piece&lt;/div&gt;&lt;div&gt;&lt;br&gt;&lt;/div&gt;" style="swimlane;fontStyle=1;align=center;verticalAlign=top;childLayout=stackLayout;horizontal=1;startSize=26;horizontalStack=0;resizeParent=1;resizeParentMax=0;resizeLast=0;collapsible=1;marginBottom=0;whiteSpace=wrap;html=1;" parent="1" vertex="1">
          <mxGeometry x="353.5" y="690" width="160" height="60" as="geometry" />
        </mxCell>
        <mxCell id="7nx60gA9-MDWkzp9lWug-23" value="" style="line;strokeWidth=1;fillColor=none;align=left;verticalAlign=middle;spacingTop=-1;spacingLeft=3;spacingRight=3;rotatable=0;labelPosition=right;points=[];portConstraint=eastwest;strokeColor=inherit;" parent="7nx60gA9-MDWkzp9lWug-22" vertex="1">
          <mxGeometry y="26" width="160" height="8" as="geometry" />
        </mxCell>
        <mxCell id="7nx60gA9-MDWkzp9lWug-24" value="+ Rotate(): void" style="text;strokeColor=none;fillColor=none;align=left;verticalAlign=top;spacingLeft=4;spacingRight=4;overflow=hidden;rotatable=0;points=[[0,0.5],[1,0.5]];portConstraint=eastwest;whiteSpace=wrap;html=1;" parent="7nx60gA9-MDWkzp9lWug-22" vertex="1">
          <mxGeometry y="34" width="160" height="26" as="geometry" />
        </mxCell>
        <mxCell id="7nx60gA9-MDWkzp9lWug-25" value="&lt;div&gt;L Piece&lt;/div&gt;&lt;div&gt;&lt;br&gt;&lt;/div&gt;" style="swimlane;fontStyle=1;align=center;verticalAlign=top;childLayout=stackLayout;horizontal=1;startSize=26;horizontalStack=0;resizeParent=1;resizeParentMax=0;resizeLast=0;collapsible=1;marginBottom=0;whiteSpace=wrap;html=1;" parent="1" vertex="1">
          <mxGeometry x="753.5" y="690" width="160" height="60" as="geometry" />
        </mxCell>
        <mxCell id="7nx60gA9-MDWkzp9lWug-26" value="" style="line;strokeWidth=1;fillColor=none;align=left;verticalAlign=middle;spacingTop=-1;spacingLeft=3;spacingRight=3;rotatable=0;labelPosition=right;points=[];portConstraint=eastwest;strokeColor=inherit;" parent="7nx60gA9-MDWkzp9lWug-25" vertex="1">
          <mxGeometry y="26" width="160" height="8" as="geometry" />
        </mxCell>
        <mxCell id="7nx60gA9-MDWkzp9lWug-27" value="+ Rotate(): void" style="text;strokeColor=none;fillColor=none;align=left;verticalAlign=top;spacingLeft=4;spacingRight=4;overflow=hidden;rotatable=0;points=[[0,0.5],[1,0.5]];portConstraint=eastwest;whiteSpace=wrap;html=1;" parent="7nx60gA9-MDWkzp9lWug-25" vertex="1">
          <mxGeometry y="34" width="160" height="26" as="geometry" />
        </mxCell>
        <mxCell id="7nx60gA9-MDWkzp9lWug-33" value="&lt;div&gt;O Piece&lt;/div&gt;&lt;div&gt;&lt;br&gt;&lt;/div&gt;" style="swimlane;fontStyle=1;align=center;verticalAlign=top;childLayout=stackLayout;horizontal=1;startSize=26;horizontalStack=0;resizeParent=1;resizeParentMax=0;resizeLast=0;collapsible=1;marginBottom=0;whiteSpace=wrap;html=1;" parent="1" vertex="1">
          <mxGeometry x="952.5" y="690" width="160" height="60" as="geometry" />
        </mxCell>
        <mxCell id="7nx60gA9-MDWkzp9lWug-34" value="" style="line;strokeWidth=1;fillColor=none;align=left;verticalAlign=middle;spacingTop=-1;spacingLeft=3;spacingRight=3;rotatable=0;labelPosition=right;points=[];portConstraint=eastwest;strokeColor=inherit;" parent="7nx60gA9-MDWkzp9lWug-33" vertex="1">
          <mxGeometry y="26" width="160" height="8" as="geometry" />
        </mxCell>
        <mxCell id="7nx60gA9-MDWkzp9lWug-35" value="+ Rotate(): void" style="text;strokeColor=none;fillColor=none;align=left;verticalAlign=top;spacingLeft=4;spacingRight=4;overflow=hidden;rotatable=0;points=[[0,0.5],[1,0.5]];portConstraint=eastwest;whiteSpace=wrap;html=1;" parent="7nx60gA9-MDWkzp9lWug-33" vertex="1">
          <mxGeometry y="34" width="160" height="26" as="geometry" />
        </mxCell>
        <mxCell id="7nx60gA9-MDWkzp9lWug-37" value="&lt;div&gt;S Piece&lt;/div&gt;&lt;div&gt;&lt;br&gt;&lt;/div&gt;" style="swimlane;fontStyle=1;align=center;verticalAlign=top;childLayout=stackLayout;horizontal=1;startSize=26;horizontalStack=0;resizeParent=1;resizeParentMax=0;resizeLast=0;collapsible=1;marginBottom=0;whiteSpace=wrap;html=1;" parent="1" vertex="1">
          <mxGeometry x="1142.5" y="690" width="160" height="60" as="geometry" />
        </mxCell>
        <mxCell id="7nx60gA9-MDWkzp9lWug-38" value="" style="line;strokeWidth=1;fillColor=none;align=left;verticalAlign=middle;spacingTop=-1;spacingLeft=3;spacingRight=3;rotatable=0;labelPosition=right;points=[];portConstraint=eastwest;strokeColor=inherit;" parent="7nx60gA9-MDWkzp9lWug-37" vertex="1">
          <mxGeometry y="26" width="160" height="8" as="geometry" />
        </mxCell>
        <mxCell id="7nx60gA9-MDWkzp9lWug-39" value="+ Rotate(): void" style="text;strokeColor=none;fillColor=none;align=left;verticalAlign=top;spacingLeft=4;spacingRight=4;overflow=hidden;rotatable=0;points=[[0,0.5],[1,0.5]];portConstraint=eastwest;whiteSpace=wrap;html=1;" parent="7nx60gA9-MDWkzp9lWug-37" vertex="1">
          <mxGeometry y="34" width="160" height="26" as="geometry" />
        </mxCell>
        <mxCell id="7nx60gA9-MDWkzp9lWug-40" value="&lt;div&gt;T Piece&lt;/div&gt;&lt;div&gt;&lt;br&gt;&lt;/div&gt;" style="swimlane;fontStyle=1;align=center;verticalAlign=top;childLayout=stackLayout;horizontal=1;startSize=26;horizontalStack=0;resizeParent=1;resizeParentMax=0;resizeLast=0;collapsible=1;marginBottom=0;whiteSpace=wrap;html=1;" parent="1" vertex="1">
          <mxGeometry x="1147.5" y="558" width="160" height="60" as="geometry" />
        </mxCell>
        <mxCell id="7nx60gA9-MDWkzp9lWug-41" value="" style="line;strokeWidth=1;fillColor=none;align=left;verticalAlign=middle;spacingTop=-1;spacingLeft=3;spacingRight=3;rotatable=0;labelPosition=right;points=[];portConstraint=eastwest;strokeColor=inherit;" parent="7nx60gA9-MDWkzp9lWug-40" vertex="1">
          <mxGeometry y="26" width="160" height="8" as="geometry" />
        </mxCell>
        <mxCell id="7nx60gA9-MDWkzp9lWug-42" value="+ Rotate(): void" style="text;strokeColor=none;fillColor=none;align=left;verticalAlign=top;spacingLeft=4;spacingRight=4;overflow=hidden;rotatable=0;points=[[0,0.5],[1,0.5]];portConstraint=eastwest;whiteSpace=wrap;html=1;" parent="7nx60gA9-MDWkzp9lWug-40" vertex="1">
          <mxGeometry y="34" width="160" height="26" as="geometry" />
        </mxCell>
        <mxCell id="7nx60gA9-MDWkzp9lWug-46" value="Extends" style="endArrow=block;endSize=16;endFill=0;html=1;rounded=0;exitX=0.5;exitY=0;exitDx=0;exitDy=0;edgeStyle=orthogonalEdgeStyle;entryX=0.501;entryY=1.009;entryDx=0;entryDy=0;entryPerimeter=0;" parent="1" source="7nx60gA9-MDWkzp9lWug-22" target="7nx60gA9-MDWkzp9lWug-11" edge="1">
          <mxGeometry x="0.0347" width="160" relative="1" as="geometry">
            <mxPoint x="397.5" y="640" as="sourcePoint" />
            <mxPoint x="557.5" y="640" as="targetPoint" />
            <Array as="points">
              <mxPoint x="433.5" y="670" />
              <mxPoint x="833.5" y="670" />
            </Array>
            <mxPoint as="offset" />
          </mxGeometry>
        </mxCell>
        <mxCell id="7nx60gA9-MDWkzp9lWug-51" value="Extends" style="endArrow=none;endSize=16;endFill=0;html=1;rounded=0;exitX=0.5;exitY=0;exitDx=0;exitDy=0;edgeStyle=orthogonalEdgeStyle;" parent="1" source="7nx60gA9-MDWkzp9lWug-37" edge="1">
          <mxGeometry width="160" relative="1" as="geometry">
            <mxPoint x="867.5" y="610" as="sourcePoint" />
            <mxPoint x="827.5" y="670" as="targetPoint" />
            <Array as="points">
              <mxPoint x="1222.5" y="670" />
              <mxPoint x="837.5" y="670" />
            </Array>
          </mxGeometry>
        </mxCell>
        <mxCell id="7nx60gA9-MDWkzp9lWug-53" style="rounded=0;orthogonalLoop=1;jettySize=auto;html=1;exitX=0.5;exitY=0;exitDx=0;exitDy=0;endArrow=none;endFill=0;" parent="1" edge="1">
          <mxGeometry relative="1" as="geometry">
            <mxPoint x="833.3831034482758" y="670" as="targetPoint" />
            <mxPoint x="833.59" y="690" as="sourcePoint" />
          </mxGeometry>
        </mxCell>
        <mxCell id="7nx60gA9-MDWkzp9lWug-54" style="rounded=0;orthogonalLoop=1;jettySize=auto;html=1;exitX=0.5;exitY=0;exitDx=0;exitDy=0;endArrow=none;endFill=0;" parent="1" edge="1">
          <mxGeometry relative="1" as="geometry">
            <mxPoint x="1032.383103448276" y="670" as="targetPoint" />
            <mxPoint x="1032.5900000000001" y="690" as="sourcePoint" />
          </mxGeometry>
        </mxCell>
        <mxCell id="7nx60gA9-MDWkzp9lWug-55" value="&lt;div&gt;Z Piece&lt;/div&gt;&lt;div&gt;&lt;br&gt;&lt;/div&gt;" style="swimlane;fontStyle=1;align=center;verticalAlign=top;childLayout=stackLayout;horizontal=1;startSize=26;horizontalStack=0;resizeParent=1;resizeParentMax=0;resizeLast=0;collapsible=1;marginBottom=0;whiteSpace=wrap;html=1;" parent="1" vertex="1">
          <mxGeometry x="356.5" y="558" width="160" height="60" as="geometry" />
        </mxCell>
        <mxCell id="7nx60gA9-MDWkzp9lWug-56" value="" style="line;strokeWidth=1;fillColor=none;align=left;verticalAlign=middle;spacingTop=-1;spacingLeft=3;spacingRight=3;rotatable=0;labelPosition=right;points=[];portConstraint=eastwest;strokeColor=inherit;" parent="7nx60gA9-MDWkzp9lWug-55" vertex="1">
          <mxGeometry y="26" width="160" height="8" as="geometry" />
        </mxCell>
        <mxCell id="7nx60gA9-MDWkzp9lWug-57" value="+ Rotate(): void" style="text;strokeColor=none;fillColor=none;align=left;verticalAlign=top;spacingLeft=4;spacingRight=4;overflow=hidden;rotatable=0;points=[[0,0.5],[1,0.5]];portConstraint=eastwest;whiteSpace=wrap;html=1;" parent="7nx60gA9-MDWkzp9lWug-55" vertex="1">
          <mxGeometry y="34" width="160" height="26" as="geometry" />
        </mxCell>
        <mxCell id="7nx60gA9-MDWkzp9lWug-59" value="Extends" style="endArrow=block;endSize=16;endFill=0;html=1;rounded=0;exitX=1;exitY=0.5;exitDx=0;exitDy=0;entryX=0.016;entryY=0.414;entryDx=0;entryDy=0;entryPerimeter=0;" parent="1" source="7nx60gA9-MDWkzp9lWug-55" target="7nx60gA9-MDWkzp9lWug-11" edge="1">
          <mxGeometry width="160" relative="1" as="geometry">
            <mxPoint x="837.5" y="580" as="sourcePoint" />
            <mxPoint x="747.5" y="588" as="targetPoint" />
          </mxGeometry>
        </mxCell>
        <mxCell id="7nx60gA9-MDWkzp9lWug-60" value="Extends" style="endArrow=block;endSize=16;endFill=0;html=1;rounded=0;exitX=1;exitY=0.5;exitDx=0;exitDy=0;entryX=0.003;entryY=0.567;entryDx=0;entryDy=0;entryPerimeter=0;" parent="1" edge="1">
          <mxGeometry width="160" relative="1" as="geometry">
            <mxPoint x="1151" y="587.66" as="sourcePoint" />
            <mxPoint x="914" y="587.66" as="targetPoint" />
          </mxGeometry>
        </mxCell>
        <mxCell id="7nx60gA9-MDWkzp9lWug-61" value="Board" style="swimlane;fontStyle=1;align=center;verticalAlign=top;childLayout=stackLayout;horizontal=1;startSize=26;horizontalStack=0;resizeParent=1;resizeParentMax=0;resizeLast=0;collapsible=1;marginBottom=0;whiteSpace=wrap;html=1;" parent="1" vertex="1">
          <mxGeometry x="753.5" y="160" width="160" height="208" as="geometry" />
        </mxCell>
        <mxCell id="7nx60gA9-MDWkzp9lWug-62" value="&lt;div&gt;- score: int&lt;br&gt;&lt;/div&gt;&lt;div&gt;- height: int&lt;/div&gt;&lt;div&gt;- width: int&lt;/div&gt;&lt;div&gt;- board: int[ ][ ]&lt;/div&gt;&lt;div&gt;- landed: int[][]&lt;br&gt;&lt;/div&gt;&lt;div&gt;- pieces: Piece&lt;br&gt;&lt;/div&gt;" style="text;strokeColor=none;fillColor=none;align=left;verticalAlign=top;spacingLeft=4;spacingRight=4;overflow=hidden;rotatable=0;points=[[0,0.5],[1,0.5]];portConstraint=eastwest;whiteSpace=wrap;html=1;" parent="7nx60gA9-MDWkzp9lWug-61" vertex="1">
          <mxGeometry y="26" width="160" height="94" as="geometry" />
        </mxCell>
        <mxCell id="7nx60gA9-MDWkzp9lWug-63" value="" style="line;strokeWidth=1;fillColor=none;align=left;verticalAlign=middle;spacingTop=-1;spacingLeft=3;spacingRight=3;rotatable=0;labelPosition=right;points=[];portConstraint=eastwest;strokeColor=inherit;" parent="7nx60gA9-MDWkzp9lWug-61" vertex="1">
          <mxGeometry y="120" width="160" height="18" as="geometry" />
        </mxCell>
        <mxCell id="7nx60gA9-MDWkzp9lWug-64" value="&lt;div&gt;+ Drawn(): void&lt;/div&gt;&lt;div&gt;+ UpdateScore(): void&lt;/div&gt;&lt;div&gt;+ DeleteLine(): void&lt;/div&gt;&lt;div&gt;+ run(): void&lt;/div&gt;" style="text;strokeColor=none;fillColor=none;align=left;verticalAlign=top;spacingLeft=4;spacingRight=4;overflow=hidden;rotatable=0;points=[[0,0.5],[1,0.5]];portConstraint=eastwest;whiteSpace=wrap;html=1;" parent="7nx60gA9-MDWkzp9lWug-61" vertex="1">
          <mxGeometry y="138" width="160" height="70" as="geometry" />
        </mxCell>
        <mxCell id="7nx60gA9-MDWkzp9lWug-65" value="&lt;div&gt;0&lt;/div&gt;" style="endArrow=open;html=1;endSize=12;startArrow=diamondThin;startSize=14;startFill=0;align=left;verticalAlign=bottom;rounded=0;exitX=0.5;exitY=0;exitDx=0;exitDy=0;entryX=0.497;entryY=1.029;entryDx=0;entryDy=0;entryPerimeter=0;" parent="1" source="7nx60gA9-MDWkzp9lWug-8" target="7nx60gA9-MDWkzp9lWug-64" edge="1">
          <mxGeometry x="-1" y="3" relative="1" as="geometry">
            <mxPoint x="577.5" y="430" as="sourcePoint" />
            <mxPoint x="957.5" y="410" as="targetPoint" />
            <mxPoint as="offset" />
          </mxGeometry>
        </mxCell>
        <mxCell id="Y_nLb0lrFFpj6vi_WQVE-2" value="Engine" style="swimlane;fontStyle=1;align=center;verticalAlign=top;childLayout=stackLayout;horizontal=1;startSize=26;horizontalStack=0;resizeParent=1;resizeParentMax=0;resizeLast=0;collapsible=1;marginBottom=0;whiteSpace=wrap;html=1;" parent="1" vertex="1">
          <mxGeometry x="460" y="160" width="160" height="90" as="geometry" />
        </mxCell>
        <mxCell id="Y_nLb0lrFFpj6vi_WQVE-4" value="" style="line;strokeWidth=1;fillColor=none;align=left;verticalAlign=middle;spacingTop=-1;spacingLeft=3;spacingRight=3;rotatable=0;labelPosition=right;points=[];portConstraint=eastwest;strokeColor=inherit;" parent="Y_nLb0lrFFpj6vi_WQVE-2" vertex="1">
          <mxGeometry y="26" width="160" height="18" as="geometry" />
        </mxCell>
        <mxCell id="Y_nLb0lrFFpj6vi_WQVE-5" value="&lt;div&gt;+ CheckCol(): void&lt;/div&gt;&lt;div&gt;+ Tick(): Void&lt;br&gt;&lt;/div&gt;" style="text;strokeColor=none;fillColor=none;align=left;verticalAlign=top;spacingLeft=4;spacingRight=4;overflow=hidden;rotatable=0;points=[[0,0.5],[1,0.5]];portConstraint=eastwest;whiteSpace=wrap;html=1;" parent="Y_nLb0lrFFpj6vi_WQVE-2" vertex="1">
          <mxGeometry y="44" width="160" height="46" as="geometry" />
        </mxCell>
      </root>
    </mxGraphModel>
  </diagram>
</mxfile>
